<?xml version="1.0" encoding="iso-8859-1"?>
<!-- Generator: Adobe Illustrator 19.0.0, SVG Export Plug-In . SVG Version: 6.00 Build 0)  -->
<svg version="1.1" id="Layer_1" xmlns="http://www.w3.org/2000/svg" xmlns:xlink="http://www.w3.org/1999/xlink" x="0px" y="0px"
	 viewBox="0 0 512.001 512.001" style="enable-background:new 0 0 512.001 512.001;" xml:space="preserve">

	<path style="fill:#2a3434;" d="M335.308,96.761c-44.935-14.611-95.441-11.99-142.209,7.382c-46.768,19.373-84.335,53.231-105.778,95.338
		c-21.716,42.645-24.359,88.625-7.44,129.472s51.3,71.49,96.811,86.288c19.166,6.232,39.339,9.328,59.81,9.328
		c27.523,0,55.579-5.601,82.399-16.71c46.768-19.373,84.335-53.231,105.778-95.338c21.716-42.645,24.359-88.625,7.44-129.472
		S380.819,111.559,335.308,96.761z M406.507,303.266c-19.241,37.782-53.125,68.236-95.41,85.751
		c-24.72,10.239-50.121,15.086-74.529,15.085c-61.224-0.003-116.127-30.515-137.848-82.954
		c-14.599-35.246-12.195-75.169,6.772-112.412c19.242-37.782,53.125-68.236,95.41-85.751
		c24.72-10.239,50.121-15.085,74.529-15.085c61.224,0,116.128,30.515,137.848,82.954
		C427.878,226.099,425.474,266.023,406.507,303.266z"/>
	<path style="fill:#2a3434;" d="M499.564,155.112c-21.103-50.945-66.54-88.048-127.941-104.474C311.199,34.477,242.346,40.312,177.743,67.07
		C113.14,93.83,60.327,138.391,29.031,192.545C-2.772,247.577-8.665,305.941,12.438,356.888
		c21.102,50.945,66.539,88.048,127.941,104.474c22.4,5.991,45.959,8.961,70.03,8.961c40.859,0,83.196-8.554,123.849-25.392
		c64.603-26.76,117.417-71.321,148.712-125.475C514.773,264.423,520.666,206.059,499.564,155.112z M465.313,309.253
		c-29.064,50.291-78.379,91.785-138.86,116.837c-60.481,25.051-124.693,30.581-180.805,15.572
		c-55.134-14.748-95.751-47.626-114.37-92.578c-18.62-44.951-13.147-96.921,15.41-146.336
		c29.064-50.291,78.379-91.785,138.86-116.837c60.48-25.053,124.692-30.583,180.805-15.572
		c55.134,14.748,95.751,47.626,114.37,92.577C499.342,207.869,493.87,259.839,465.313,309.253z"/>

	<path style="fill:#2a3434;" d="M120.264,399.138c-26.858-15.126-46.775-36.931-57.596-63.056c-2.616-6.318-4.708-12.897-6.216-19.56
		c-1.244-5.493-6.705-8.943-12.196-7.693c-5.493,1.243-8.937,6.703-7.694,12.196c1.763,7.787,4.207,15.479,7.265,22.861
		c12.584,30.382,35.556,55.632,66.429,73.019c1.582,0.891,3.3,1.314,4.994,1.314c3.562,0,7.021-1.87,8.894-5.194
		C126.908,408.119,125.17,401.901,120.264,399.138z"/>

	<path style="fill:#2a3434;" d="M49.683,244.499c-5.479-1.3-10.973,2.096-12.269,7.576c-1.346,5.692-2.397,11.453-3.123,17.125
		c-0.716,5.584,3.231,10.693,8.818,11.409c0.439,0.057,0.876,0.084,1.308,0.084c5.054,0,9.442-3.755,10.102-8.902
		c0.636-4.967,1.558-10.021,2.741-15.021C58.554,251.288,55.163,245.795,49.683,244.499z"/>

</svg>
